<?xml version="1.0" standalone="no"?>
<!DOCTYPE svg PUBLIC "-//W3C//DTD SVG 20010904//EN"
 "http://www.w3.org/TR/2001/REC-SVG-20010904/DTD/svg10.dtd">
<svg version="1.0" xmlns="http://www.w3.org/2000/svg"
 width="512.000000pt" height="512.000000pt" viewBox="0 0 512.000000 512.000000"
 preserveAspectRatio="xMidYMid meet">

<g transform="translate(0.000000,512.000000) scale(0.100000,-0.100000)"
fill="#000000" stroke="none">
<path d="M836 5104 c-132 -32 -260 -131 -323 -250 -67 -126 -63 27 -63 -2294
0 -2321 -4 -2168 63 -2294 41 -78 125 -162 203 -203 125 -66 20 -63 1844 -63
1441 0 1663 2 1719 15 184 44 332 192 376 376 22 94 23 3395 1 3437 -18 33
-1252 1265 -1283 1281 -15 8 -372 11 -1250 10 -1024 -1 -1238 -3 -1287 -15z
m3036 -781 c236 -236 428 -432 428 -436 0 -5 -143 -7 -317 -5 l-318 3 -57 28
c-65 32 -121 90 -151 156 -20 43 -22 66 -25 364 -2 174 0 317 5 317 4 0 200
-192 435 -427z"/>
</g>
</svg>
